<svg width="1440" height="117" viewBox="0 0 1440 117" fill="none" xmlns="http://www.w3.org/2000/svg">
<path d="M1440 76H1260L1241.05 57H918.947L900 76H720H540H360H180H0V0H1440V76Z" fill="#B7B7B7"/>
<path d="M1440 92H1260L1241.05 73H918.947L900 92H720H540H360H180H0V16H1440V92Z" fill="white"/>
<path d="M1440 40H1260L1241.05 59.25H918.947L900 40H720H540H360H180H-1.52588e-05V117H1440V40Z" fill="#666666"/>
<path d="M1440 101H1260L1241.05 82.25H918.947L900 101H720H540H360H180H-1.52588e-05V26H1440V101Z" fill="white"/>
<path d="M31.7148 85.5908H36L47 68.6008L42.5 61H20.5L16 68.6008L27 85.5908H31.7148Z" fill="#C7C7C7"/>
<path d="M31.7148 55.5908H36L47 38.6008L42.5 31H20.5L16 38.6008L27 55.5908H31.7148Z" fill="#C7C7C7"/>
<path d="M85.8522 31L76 54H146.936L156 31H85.8522Z" stroke="#FF0000" stroke-width="2"/>
<path d="M165.852 31L156 54H226.936L236 31H165.852Z" stroke="#FF0000" stroke-width="2"/>
</svg>
